<?xml version="1.0" standalone="no"?>
<!DOCTYPE svg PUBLIC "-//W3C//DTD SVG 20010904//EN"
 "http://www.w3.org/TR/2001/REC-SVG-20010904/DTD/svg10.dtd">
<svg version="1.0" xmlns="http://www.w3.org/2000/svg"
 width="152.000000pt" height="117.000000pt" viewBox="0 0 152.000000 117.000000"
 preserveAspectRatio="xMidYMid meet">

<g transform="translate(0.000000,117.000000) scale(0.100000,-0.100000)"
fill="#000000" stroke="none">
<path d="M665 1151 c-22 -10 -72 -45 -111 -78 -81 -68 -129 -89 -225 -98 -71
-7 -154 -45 -114 -53 40 -8 34 -18 -24 -45 -32 -15 -82 -48 -110 -73 -52 -47
-61 -65 -21 -44 35 19 34 6 -4 -52 -37 -56 -64 -133 -52 -145 4 -5 12 0 17 10
19 33 27 16 22 -47 -3 -38 0 -78 7 -101 l13 -38 12 29 12 29 7 -30 c18 -79 30
-113 53 -153 14 -24 26 -42 28 -40 2 2 -1 26 -6 53 -20 103 12 238 75 311 73
85 205 125 350 105 41 -6 146 -34 233 -62 120 -39 176 -52 233 -54 69 -3 210
-38 260 -65 16 -9 18 -15 10 -30 -25 -47 -2 -40 64 21 52 47 133 147 125 153
-5 3 -155 62 -237 92 -97 37 -185 47 -257 30 -33 -8 -60 -14 -60 -13 -1 19
-33 47 -75 68 -34 17 -49 28 -41 33 15 10 47 2 133 -31 44 -17 75 -23 92 -19
25 6 26 7 11 35 -32 63 -98 91 -283 122 -121 21 -126 21 -139 3 -7 -9 -16 -15
-19 -11 -14 14 9 77 46 130 58 81 52 94 -25 58z"/>
<path d="M504 630 c-147 -22 -227 -95 -249 -226 -15 -95 42 -252 127 -348 l43
-48 1 113 c0 95 4 124 24 173 60 154 240 240 435 207 55 -9 79 -9 95 -1 39 21
19 42 -65 71 -141 49 -314 74 -411 59z"/>
<path d="M745 446 c-109 -28 -175 -73 -206 -141 -35 -76 -16 -206 37 -255 l24
-23 0 26 c0 39 14 41 63 6 30 -21 60 -33 93 -36 l49 -4 -46 29 c-64 42 -89 76
-89 124 0 52 38 91 110 112 70 21 202 20 255 -1 22 -9 58 -15 79 -15 22 1 45
-3 52 -9 17 -14 98 8 121 33 13 15 15 22 6 25 -8 3 -13 23 -13 50 l0 46 -25
-27 c-13 -14 -29 -26 -35 -26 -7 0 -42 14 -80 30 -42 19 -85 30 -113 30 -29 0
-53 7 -70 20 -30 24 -130 26 -212 6z"/>
</g>
</svg>
